PathFileType	4	(X/Y/Z)	/Users/itak/Documents/Research/Walk-IL/dataset/trc/00100_00007.trc
DataRate	CameraRate	NumFrames	NumMarkers	Units	OrigDataRate	OrigDataStartFrame	OrigNumFrames
100.000000	100.000000	4	53	mm	100.000000	462	528
Frame#	Time	RPSI			LPSI			L3			STRN			T10			C7			CLAV			RBAK			LBAK			LSHO			LUPA			LAEL			LAOL			LWTS			LWPS			LFRA			LIFD			LHPS			LHTS			RSHO			RUPA			RAEL			RAOL			RWTS			RWPS			RFRA			RIFD			RHTS			RHPS			RBHD			LFHD			RFHD			LBHD			LHIP			RHIP			RASI			LASI			LKNE			LTHI			LANK			LTIP			LTOE			LMT1			LMT5			LHEE			RKNE			RTHI			RANK			RTIP			RTOE			RMT1			RMT5			RHEE			
		X1	Y1	Z1	X2	Y2	Z2	X3	Y3	Z3	X4	Y4	Z4	X5	Y5	Z5	X6	Y6	Z6	X7	Y7	Z7	X8	Y8	Z8	X9	Y9	Z9	X10	Y10	Z10	X11	Y11	Z11	X12	Y12	Z12	X13	Y13	Z13	X14	Y14	Z14	X15	Y15	Z15	X16	Y16	Z16	X17	Y17	Z17	X18	Y18	Z18	X19	Y19	Z19	X20	Y20	Z20	X21	Y21	Z21	X22	Y22	Z22	X23	Y23	Z23	X24	Y24	Z24	X25	Y25	Z25	X26	Y26	Z26	X27	Y27	Z27	X28	Y28	Z28	X29	Y29	Z29	X30	Y30	Z30	X31	Y31	Z31	X32	Y32	Z32	X33	Y33	Z33	X34	Y34	Z34	X35	Y35	Z35	X36	Y36	Z36	X37	Y37	Z37	X38	Y38	Z38	X39	Y39	Z39	X40	Y40	Z40	X41	Y41	Z41	X42	Y42	Z42	X43	Y43	Z43	X44	Y44	Z44	X45	Y45	Z45	X46	Y46	Z46	X47	Y47	Z47	X48	Y48	Z48	X49	Y49	Z49	X50	Y50	Z50	X51	Y51	Z51	X52	Y52	Z52	X53	Y53	Z53	

463	4.62	464.6491088867188	1123.03759765625	-268.1159057617188	459.858154296875	1124.87890625	-403.356689453125	455.8939208984375	1157.897827148438	-337.1838073730469	669.3443603515625	1364.037841796875	-344.5603637695312	413.5077514648438	1306.715942382812	-337.3894348144531	442.6440124511719	1599.501953125	-355.0672912597656	628.8720092773438	1497.468139648438	-347.8826293945312	391.6645202636719	1413.929321289062	-265.3766784667969	433.6143188476562	1580.163330078125	-456.6640319824219	521.4588623046875	1569.78662109375	-523.7755126953125	510.7333984375	1440.21630859375	-597.7238159179688	553.7634887695312	1225.993408203125	-627.9080810546875	488.3604431152344	1199.61572265625	-574.1261596679688	719.2396240234375	1008.404907226562	-588.653564453125	649.1143798828125	958.91748046875	-616.4611206054688	597.6618041992188	1117.850463867188	-634.4246826171875	789.1317749023438	829.5137329101562	-569.1888427734375	699.2117309570312	896.193359375	-618.0621948242188	760.934814453125	928.4862670898438	-601.8717651367188	501.0589599609375	1581.567016601562	-173.5332489013672	487.0108032226562	1508.27880859375	-109.7534255981445	477.8367614746094	1214.583740234375	-84.84596252441406	470.0382385253906	1212.8408203125	-180.9960632324219	619.6866455078125	970.7546997070312	-101.0706939697266	546.2007446289062	954.91015625	-68.79786682128906	501.4306335449219	1141.302490234375	-70.03396606445312	637.8026123046875	774.9891967773438	-122.140380859375	645.8743896484375	860.4730224609375	-98.34972381591797	580.5996704101562	854.6467895507812	-66.45747375488281	484.792724609375	1773.721069335938	-277.8001098632812	643.773193359375	1837.168212890625	-416.6307373046875	646.154541015625	1845.963745117188	-287.0731506347656	472.2989196777344	1768.638427734375	-412.6741638183594	550.3983154296875	1039.354614257812	-514.1602172851562	597.0556030273438	1028.413330078125	-156.2028198242188	675.8335571289062	1105.098754882812	-211.2708435058594	659.55615234375	1107.549560546875	-476.7597045898438	590.1818237304688	536.6828002929688	-484.0765991210938	564.681396484375	682.5197143554688	-510.1665954589844	452.8114624023438	35.37217712402344	-474.4393615722656	477.2564697265625	291.3461608886719	-507.8022766113281	685.7061767578125	34.81734466552734	-411.5306701660156	602.451904296875	42.68915939331055	-382.4959411621094	579.089111328125	32.86778259277344	-499.9225463867188	383.6286010742188	39.73672866821289	-412.6931457519531	570.768310546875	536.5831909179688	-202.9214630126953	610.6669921875	816.567138671875	-170.3197937011719	437.7339172363281	32.57980728149414	-225.5323944091797	536.5285034179688	404.1573486328125	-194.6908721923828	669.595947265625	36.73013305664062	-288.5455017089844	604.0015258789062	30.99066352844238	-326.4057006835938	571.3253173828125	38.19981002807617	-208.0382080078125	378.4873657226562	36.15620422363281	-271.34912109375	
464	4.63	464.8724975585938	1123.142822265625	-268.9659729003906	460.3585205078125	1124.98046875	-404.2145385742188	456.3284606933594	1157.985595703125	-338.0638427734375	669.7920532226562	1364.017456054688	-344.90966796875	414.0277099609375	1306.816772460938	-338.3617553710938	443.2524108886719	1599.594848632812	-355.9105834960938	629.4352416992188	1497.485961914062	-348.288330078125	391.9717712402344	1413.986938476562	-266.4170532226562	434.5177917480469	1580.326782226562	-457.5430603027344	522.5258178710938	1569.9453125	-524.3980102539062	512.0035400390625	1440.392456054688	-598.3936767578125	555.0969848632812	1226.139282226562	-628.44775390625	489.5116577148438	1199.835205078125	-574.9097290039062	720.2235717773438	1008.403747558594	-588.5621337890625	650.1283569335938	958.9501953125	-616.574462890625	598.9054565429688	1117.939208984375	-634.7985229492188	789.7567138671875	829.3285522460938	-568.68603515625	700.161865234375	896.1557006835938	-617.9652709960938	761.8270874023438	928.3922119140625	-601.574951171875	501.220458984375	1581.582397460938	-174.2299957275391	486.8927917480469	1508.320434570312	-110.5092849731445	477.3443298339844	1214.625854492188	-85.84515380859375	469.8113403320312	1212.952270507812	-182.0334930419922	618.2362060546875	970.2411499023438	-101.7853469848633	544.6216430664062	954.7213134765625	-69.65340423583984	500.4906921386719	1141.30322265625	-71.08116912841797	635.5394287109375	774.374267578125	-122.8253479003906	643.9282836914062	859.82470703125	-99.01438903808594	578.5881958007812	854.309814453125	-67.24873352050781	485.4765319824219	1773.78759765625	-278.3017578125	644.6082153320312	1837.119506835938	-417.0316772460938	646.9365844726562	1845.837524414062	-287.463134765625	473.0328979492188	1768.77392578125	-413.19287109375	551.0790405273438	1039.419799804688	-514.7359008789062	596.993408203125	1028.428344726562	-156.8694610595703	675.9735107421875	1105.115600585938	-211.8004302978516	660.0936889648438	1107.536987304688	-477.2625427246094	589.2926635742188	536.7196044921875	-484.4779968261719	564.2537231445312	682.581298828125	-510.6798400878906	452.8011474609375	35.30488967895508	-474.4659423828125	476.6968078613281	291.3287963867188	-508.0930480957031	685.6853637695312	34.8306999206543	-411.5299682617188	602.4450073242188	42.70867156982422	-382.5086975097656	579.0865478515625	32.86204528808594	-499.931884765625	383.6098327636719	39.72797775268555	-412.7379455566406	570.9461059570312	536.5936279296875	-203.3152770996094	611.412353515625	817.0921020507812	-171.2945556640625	437.7210998535156	32.61070251464844	-225.5662994384766	536.6575927734375	404.18701171875	-195.0251617431641	669.596435546875	36.7341423034668	-288.56884765625	603.9960327148438	30.9786319732666	-326.3964538574219	571.3130493164062	38.21508026123047	-208.0502014160156	378.4838256835938	36.15645217895508	-271.4011535644531	
465	4.64	465.09423828125	1123.217529296875	-269.8133850097656	460.8517150878906	1125.064697265625	-405.0696105957031	456.7111511230469	1158.0576171875	-338.9532165527344	670.213134765625	1363.985107421875	-345.2395629882812	414.5059814453125	1306.899047851562	-339.3387451171875	443.8202514648438	1599.670654296875	-356.7500305175781	629.965576171875	1497.489501953125	-348.6834716796875	392.2626953125	1414.0322265625	-267.4393310546875	435.3968505859375	1580.467163085938	-458.4137573242188	523.5612182617188	1570.069091796875	-525.0098266601562	513.2353515625	1440.530517578125	-599.045654296875	556.3359375	1226.230590820312	-628.9532470703125	490.541015625	1200.03369140625	-575.6659545898438	720.9219360351562	1008.192687988281	-588.4086303710938	650.8264770507812	958.8427734375	-616.6416625976562	599.9739990234375	1117.926635742188	-635.1246948242188	789.9283447265625	828.8792724609375	-568.0967407226562	700.7403564453125	895.937744140625	-617.8193359375	762.3545532226562	928.049072265625	-601.186767578125	501.3425598144531	1581.588134765625	-174.9183349609375	486.7693176269531	1508.355224609375	-111.231803894043	476.94287109375	1214.648681640625	-86.81855010986328	469.65673828125	1213.034912109375	-183.0391693115234	617.0277099609375	969.7870483398438	-102.5297622680664	543.3001098632812	954.5526123046875	-70.52131652832031	499.6682434082031	1141.29296875	-72.12034606933594	633.6224975585938	773.8369140625	-123.5740051269531	642.2920532226562	859.2572021484375	-99.73230743408203	576.8941650390625	854.01416015625	-68.07543182373047	486.1047668457031	1773.837646484375	-278.8058166503906	645.3902587890625	1837.056884765625	-417.430908203125	647.6646118164062	1845.70703125	-287.8499755859375	473.7073364257812	1768.888305664062	-413.7099304199219	551.7471923828125	1039.4619140625	-515.307373046875	596.9683837890625	1028.43359375	-157.486083984375	676.0540771484375	1105.131103515625	-212.2900543212891	660.6298217773438	1107.5126953125	-477.7431945800781	588.434326171875	536.7686157226562	-484.8761291503906	563.8505859375	682.6288452148438	-511.184326171875	452.7905578613281	35.23790740966797	-474.4900207519531	476.1598205566406	291.3153686523438	-508.3823547363281	685.6640625	34.84137344360352	-411.5283813476562	602.43798828125	42.72504043579102	-382.5213623046875	579.0835571289062	32.85622024536133	-499.9420471191406	383.6009521484375	39.71720504760742	-412.7731018066406	571.1275024414062	536.5975952148438	-203.7002258300781	612.0538940429688	817.5950317382812	-172.183349609375	437.7091064453125	32.63877868652344	-225.5980224609375	536.7976684570312	404.2058410644531	-195.3495788574219	669.5985717773438	36.74166488647461	-288.581787109375	603.991455078125	30.96700477600098	-326.3894958496094	571.3015747070312	38.22520446777344	-208.0604705810547	378.4796447753906	36.15362167358398	-271.4491271972656	
466	4.65	465.30419921875	1123.263793945312	-270.6554260253906	461.3348388671875	1125.131103515625	-405.9180297851562	457.0393371582031	1158.111694335938	-339.8484191894531	670.6203002929688	1363.93994140625	-345.5653381347656	414.9286499023438	1306.962158203125	-340.317138671875	444.3487854003906	1599.726196289062	-357.5834350585938	630.4637451171875	1497.470947265625	-349.0704650878906	392.5380554199219	1414.0625	-268.4433288574219	436.2444763183594	1580.579833984375	-459.27294921875	524.5608520507812	1570.154174804688	-525.613525390625	514.42138671875	1440.62255859375	-599.6775512695312	557.48095703125	1226.25927734375	-629.4237060546875	491.4562072753906	1200.198120117188	-576.3883666992188	721.339111328125	1007.763671875	-588.194091796875	651.2161865234375	958.5914916992188	-616.6680908203125	600.87451171875	1117.809204101562	-635.4025268554688	789.6692504882812	828.1766357421875	-567.4404296875	700.955322265625	895.537109375	-617.6312255859375	762.52685546875	927.4512939453125	-600.714599609375	501.4296569824219	1581.574340820312	-175.5962829589844	486.6492309570312	1508.372314453125	-111.9179306030273	476.6191101074219	1214.643188476562	-87.76482391357422	469.5570983886719	1213.088745117188	-184.011962890625	616.06298828125	969.3890991210938	-103.303337097168	542.2348022460938	954.3948364257812	-71.40076446533203	498.9953002929688	1141.261596679688	-73.12920379638672	632.0693969726562	773.3768310546875	-124.3782501220703	640.9736938476562	858.7711181640625	-100.5005111694336	575.517333984375	853.7515258789062	-68.93726348876953	486.6792907714844	1773.867065429688	-279.3134155273438	646.1170043945312	1836.978515625	-417.8211059570312	648.3365478515625	1845.573364257812	-288.234375	474.3250122070312	1768.9775390625	-414.2247314453125	552.4080200195312	1039.477661132812	-515.8744506835938	596.995849609375	1028.427734375	-158.0514984130859	676.0787963867188	1105.135864257812	-212.7467346191406	661.1654052734375	1107.468139648438	-478.2063903808594	587.6047973632812	536.8316040039062	-485.2719421386719	563.4722900390625	682.6622924804688	-511.6880798339844	452.7782897949219	35.17208862304688	-474.5129089355469	475.6442565917969	291.3020324707031	-508.6656799316406	685.641845703125	34.85133743286133	-411.5281982421875	602.4302368164062	42.73978424072266	-382.5346069335938	579.079833984375	32.84983444213867	-499.9529418945312	383.5996704101562	39.70080947875977	-412.8000793457031	571.301025390625	536.5947875976562	-204.0792388916016	612.519775390625	818.0089721679688	-172.9358367919922	437.6960144042969	32.66133880615234	-225.6253356933594	536.943603515625	404.21728515625	-195.6613464355469	669.5994873046875	36.7564811706543	-288.5816955566406	603.9869995117188	30.9565544128418	-326.3838806152344	571.2904663085938	38.23040390014648	-208.0693817138672	378.4710693359375	36.14699554443359	-271.490478515625	
